<svg xmlns="http://www.w3.org/2000/svg" viewBox="0 0 380 380">
  <defs>
    <style>.cls-1{fill:#e24329;}.cls-2{fill:#fc6d26;}.cls-3{fill:#fca326;}</style>
  </defs>
  <g id="Layer_2" data-name="Layer 2">
    <g id="Layer_1-2" data-name="Layer 1">
      <path class="cls-1" d="M282.83,170.73l-.27-.69-26.14-68.22a6.81,6.81,0,0,0-2.69-3.24,7.07,7.07,0,0,0-4,.28,6.87,6.87,0,0,0-3.23,2.69,7,7,0,0,0-.32,4.14l17.27,54.88Z"/>
      <path class="cls-2" d="M282.83,170.73H190V358.51c.21,0,.43-.1.6-.22l92.23-92.23a6.44,6.44,0,0,0,2-4.58V175.31A6.47,6.47,0,0,0,282.83,170.73Z"/>
      <path class="cls-3" d="M190,358.51l92.83-92.45L282.83,170.73Z"/>
      <path class="cls-1" d="M97.17,170.73l.27-.69L123.58,101.82a6.81,6.81,0,0,1,2.69-3.24,7.07,7.07,0,0,1,4,.28,6.87,6.87,0,0,1,3.23,2.69,7,7,0,0,1,.32,4.14L116.55,160.48Z"/>
      <path class="cls-2" d="M97.17,170.73H190V358.51c-.21,0-.43-.1-.6-.22L97.17,266.06a6.44,6.44,0,0,1-2-4.58V175.31A6.47,6.47,0,0,1,97.17,170.73Z"/>
      <path class="cls-3" d="M190,358.51L97.17,266.06l10-95.33Z"/>
    </g>
  </g>
</svg>
